# xmcd
#
# Track frame offsets: 
#        150
#        12465
#        25860
#        40762
#        55475
#        74020
#        99877
#        115915
#        135225
#        149300
#        175897
#        188052
#
# Disc length: 2726 seconds
#
# Revision: 4
# Processed by: cddbd v1.5.2PL0 Copyright (c) Steve Scherf et al.
# Submitted via: ExactAudioCopy v1.0b1
#
DISCID=a20aa40c
DTITLE=Dummer Blues Band, John - Cabal - Spm
DYEAR=1969
DGENRE=Blues
TTITLE0=I Need Love
TTITLE1=Just A Feeling
TTITLE2=No Chance With You
TTITLE3=Young Fashioned Ways
TTITLE4=Sitting And Thinking
TTITLE5=Low Down Santa Fe
TTITLE6=When You Got A Good Friend
TTITLE7=Welfare Blues
TTITLE8=Hound Dog
TTITLE9=Blue Guitar
TTITLE10=After Hours
TTITLE11=Daddy Please Don't Cry
EXTD=
EXTT0=
EXTT1=
EXTT2=
EXTT3=
EXTT4=
EXTT5=
EXTT6=
EXTT7=
EXTT8=
EXTT9=
EXTT10=
EXTT11=
PLAYORDER=
